{
    "asset" : {
        "generator" : "Khronos glTF Blender I/O v1.3.48",
        "version" : "2.0"
    },
    "scene" : 0,
    "scenes" : [
        {
            "name" : "Scene",
            "nodes" : [
                0,
                1
            ]
        }
    ],
    "nodes" : [
        {
            "mesh" : 0,
            "name" : "robot_collider",
            "scale" : [
                0.0020209255162626505,
                0.05322790890932083,
                0.016017112880945206
            ],
            "translation" : [
                0,
                0.44684088230133057,
                0
            ]
        },
        {
            "mesh" : 1,
            "name" : "robot",
            "scale" : [
                0.02539999969303608,
                0.02539999969303608,
                0.02539999969303608
            ],
            "translation" : [
                0,
                2.0597872734069824,
                0.6653050184249878
            ]
        }
    ],
    "animations" : [
        {
            "channels" : [
                {
                    "sampler" : 0,
                    "target" : {
                        "node" : 1,
                        "path" : "translation"
                    }
                },
                {
                    "sampler" : 1,
                    "target" : {
                        "node" : 1,
                        "path" : "rotation"
                    }
                },
                {
                    "sampler" : 2,
                    "target" : {
                        "node" : 1,
                        "path" : "scale"
                    }
                }
            ],
            "name" : "robot|Take 001|BaseLayer",
            "samplers" : [
                {
                    "input" : 8,
                    "interpolation" : "STEP",
                    "output" : 9
                },
                {
                    "input" : 8,
                    "interpolation" : "STEP",
                    "output" : 10
                },
                {
                    "input" : 8,
                    "interpolation" : "STEP",
                    "output" : 11
                }
            ]
        }
    ],
    "materials" : [
        {
            "doubleSided" : true,
            "emissiveFactor" : [
                1,
                1,
                1
            ],
            "emissiveTexture" : {
                "index" : 0,
                "texCoord" : 0
            },
            "name" : "Material #25.006",
            "pbrMetallicRoughness" : {
                "baseColorTexture" : {
                    "index" : 1,
                    "texCoord" : 0
                },
                "metallicFactor" : 0,
                "roughnessFactor" : 0.5527864098548889
            }
        }
    ],
    "meshes" : [
        {
            "name" : "Mesh.012",
            "primitives" : [
                {
                    "attributes" : {
                        "POSITION" : 0,
                        "NORMAL" : 1,
                        "TEXCOORD_0" : 2
                    },
                    "indices" : 3
                }
            ]
        },
        {
            "name" : "Mesh.013",
            "primitives" : [
                {
                    "attributes" : {
                        "POSITION" : 4,
                        "NORMAL" : 5,
                        "TEXCOORD_0" : 6
                    },
                    "indices" : 7,
                    "material" : 0
                }
            ]
        }
    ],
    "textures" : [
        {
            "source" : 0
        },
        {
            "source" : 1
        }
    ],
    "images" : [
        {
            "bufferView" : 8,
            "mimeType" : "image/png",
            "name" : "TextureAtlasEmissive"
        },
        {
            "bufferView" : 9,
            "mimeType" : "image/png",
            "name" : "TextureAtlas"
        }
    ],
    "accessors" : [
        {
            "bufferView" : 0,
            "componentType" : 5126,
            "count" : 24,
            "max" : [
                314.96063232421875,
                39.370079040527344,
                39.370079040527344
            ],
            "min" : [
                -314.96063232421875,
                0,
                -39.370079040527344
            ],
            "type" : "VEC3"
        },
        {
            "bufferView" : 1,
            "componentType" : 5126,
            "count" : 24,
            "type" : "VEC3"
        },
        {
            "bufferView" : 2,
            "componentType" : 5126,
            "count" : 24,
            "type" : "VEC2"
        },
        {
            "bufferView" : 3,
            "componentType" : 5123,
            "count" : 36,
            "type" : "SCALAR"
        },
        {
            "bufferView" : 4,
            "componentType" : 5126,
            "count" : 1764,
            "max" : [
                18.76972007751465,
                17.87322425842285,
                0.44574421644210815
            ],
            "min" : [
                -18.301626205444336,
                -56.50849533081055,
                -48.6165885925293
            ],
            "type" : "VEC3"
        },
        {
            "bufferView" : 5,
            "componentType" : 5126,
            "count" : 1764,
            "type" : "VEC3"
        },
        {
            "bufferView" : 6,
            "componentType" : 5126,
            "count" : 1764,
            "type" : "VEC2"
        },
        {
            "bufferView" : 7,
            "componentType" : 5123,
            "count" : 1806,
            "type" : "SCALAR"
        },
        {
            "bufferView" : 10,
            "componentType" : 5126,
            "count" : 1,
            "max" : [
                0.03333333333333333
            ],
            "min" : [
                0.03333333333333333
            ],
            "type" : "SCALAR"
        },
        {
            "bufferView" : 11,
            "componentType" : 5126,
            "count" : 1,
            "type" : "VEC3"
        },
        {
            "bufferView" : 12,
            "componentType" : 5126,
            "count" : 1,
            "type" : "VEC4"
        },
        {
            "bufferView" : 13,
            "componentType" : 5126,
            "count" : 1,
            "type" : "VEC3"
        }
    ],
    "bufferViews" : [
        {
            "buffer" : 0,
            "byteLength" : 288,
            "byteOffset" : 0
        },
        {
            "buffer" : 0,
            "byteLength" : 288,
            "byteOffset" : 288
        },
        {
            "buffer" : 0,
            "byteLength" : 192,
            "byteOffset" : 576
        },
        {
            "buffer" : 0,
            "byteLength" : 72,
            "byteOffset" : 768
        },
        {
            "buffer" : 0,
            "byteLength" : 21168,
            "byteOffset" : 840
        },
        {
            "buffer" : 0,
            "byteLength" : 21168,
            "byteOffset" : 22008
        },
        {
            "buffer" : 0,
            "byteLength" : 14112,
            "byteOffset" : 43176
        },
        {
            "buffer" : 0,
            "byteLength" : 3612,
            "byteOffset" : 57288
        },
        {
            "buffer" : 0,
            "byteLength" : 3675,
            "byteOffset" : 60900
        },
        {
            "buffer" : 0,
            "byteLength" : 6937,
            "byteOffset" : 64576
        },
        {
            "buffer" : 0,
            "byteLength" : 4,
            "byteOffset" : 71516
        },
        {
            "buffer" : 0,
            "byteLength" : 12,
            "byteOffset" : 71520
        },
        {
            "buffer" : 0,
            "byteLength" : 16,
            "byteOffset" : 71532
        },
        {
            "buffer" : 0,
            "byteLength" : 12,
            "byteOffset" : 71548
        }
    ],
    "buffers" : [
        {
            "byteLength" : 71560,
            "uri" : "data:application/octet-stream;base64,"
        }
    ]
}
