{
    "asset" : {
        "generator" : "Khronos glTF Blender I/O v1.3.48",
        "version" : "2.0"
    },
    "scene" : 0,
    "scenes" : [
        {
            "name" : "Scene",
            "nodes" : [
                0,
                1
            ]
        }
    ],
    "nodes" : [
        {
            "mesh" : 0,
            "name" : "asteroid_collider",
            "scale" : [
                0.0019136867485940456,
                0.03722451254725456,
                0.016017112880945206
            ],
            "translation" : [
                0,
                -0.009468462318181992,
                0
            ]
        },
        {
            "mesh" : 1,
            "name" : "asteroid",
            "rotation" : [
                -0.11597292870283127,
                0.9747999310493469,
                -0.1692648082971573,
                0.08754990249872208
            ],
            "scale" : [
                0.48991939425468445,
                0.5764695405960083,
                0.4797337055206299
            ],
            "translation" : [
                -0.0845429003238678,
                0.8615076541900635,
                0
            ]
        }
    ],
    "animations" : [
        {
            "channels" : [
                {
                    "sampler" : 0,
                    "target" : {
                        "node" : 1,
                        "path" : "translation"
                    }
                },
                {
                    "sampler" : 1,
                    "target" : {
                        "node" : 1,
                        "path" : "rotation"
                    }
                },
                {
                    "sampler" : 2,
                    "target" : {
                        "node" : 1,
                        "path" : "scale"
                    }
                }
            ],
            "name" : "asteroid|Take 001|BaseLayer",
            "samplers" : [
                {
                    "input" : 8,
                    "interpolation" : "STEP",
                    "output" : 9
                },
                {
                    "input" : 8,
                    "interpolation" : "STEP",
                    "output" : 10
                },
                {
                    "input" : 8,
                    "interpolation" : "STEP",
                    "output" : 11
                }
            ]
        }
    ],
    "materials" : [
        {
            "doubleSided" : true,
            "emissiveFactor" : [
                1,
                1,
                1
            ],
            "emissiveTexture" : {
                "index" : 0,
                "texCoord" : 0
            },
            "name" : "Material #25.008",
            "pbrMetallicRoughness" : {
                "baseColorTexture" : {
                    "index" : 1,
                    "texCoord" : 0
                },
                "metallicFactor" : 0,
                "roughnessFactor" : 0.5527864098548889
            }
        }
    ],
    "meshes" : [
        {
            "name" : "Mesh.016",
            "primitives" : [
                {
                    "attributes" : {
                        "POSITION" : 0,
                        "NORMAL" : 1,
                        "TEXCOORD_0" : 2
                    },
                    "indices" : 3
                }
            ]
        },
        {
            "name" : "Mesh.017",
            "primitives" : [
                {
                    "attributes" : {
                        "POSITION" : 4,
                        "NORMAL" : 5,
                        "TEXCOORD_0" : 6
                    },
                    "indices" : 7,
                    "material" : 0
                }
            ]
        }
    ],
    "textures" : [
        {
            "source" : 0
        },
        {
            "source" : 1
        }
    ],
    "images" : [
        {
            "bufferView" : 8,
            "mimeType" : "image/png",
            "name" : "TextureAtlasEmissive"
        },
        {
            "bufferView" : 9,
            "mimeType" : "image/png",
            "name" : "TextureAtlas"
        }
    ],
    "accessors" : [
        {
            "bufferView" : 0,
            "componentType" : 5126,
            "count" : 24,
            "max" : [
                314.96063232421875,
                39.370079040527344,
                39.370079040527344
            ],
            "min" : [
                -314.96063232421875,
                0,
                -39.370079040527344
            ],
            "type" : "VEC3"
        },
        {
            "bufferView" : 1,
            "componentType" : 5126,
            "count" : 24,
            "type" : "VEC3"
        },
        {
            "bufferView" : 2,
            "componentType" : 5126,
            "count" : 24,
            "type" : "VEC2"
        },
        {
            "bufferView" : 3,
            "componentType" : 5123,
            "count" : 36,
            "type" : "SCALAR"
        },
        {
            "bufferView" : 4,
            "componentType" : 5126,
            "count" : 978,
            "max" : [
                1.2395224571228027,
                1.152199149131775,
                1.0385428667068481
            ],
            "min" : [
                -1.483422040939331,
                -1.2356038093566895,
                -0.9679718613624573
            ],
            "type" : "VEC3"
        },
        {
            "bufferView" : 5,
            "componentType" : 5126,
            "count" : 978,
            "type" : "VEC3"
        },
        {
            "bufferView" : 6,
            "componentType" : 5126,
            "count" : 978,
            "type" : "VEC2"
        },
        {
            "bufferView" : 7,
            "componentType" : 5123,
            "count" : 978,
            "type" : "SCALAR"
        },
        {
            "bufferView" : 10,
            "componentType" : 5126,
            "count" : 1,
            "max" : [
                0.03333333333333333
            ],
            "min" : [
                0.03333333333333333
            ],
            "type" : "SCALAR"
        },
        {
            "bufferView" : 11,
            "componentType" : 5126,
            "count" : 1,
            "type" : "VEC3"
        },
        {
            "bufferView" : 12,
            "componentType" : 5126,
            "count" : 1,
            "type" : "VEC4"
        },
        {
            "bufferView" : 13,
            "componentType" : 5126,
            "count" : 1,
            "type" : "VEC3"
        }
    ],
    "bufferViews" : [
        {
            "buffer" : 0,
            "byteLength" : 288,
            "byteOffset" : 0
        },
        {
            "buffer" : 0,
            "byteLength" : 288,
            "byteOffset" : 288
        },
        {
            "buffer" : 0,
            "byteLength" : 192,
            "byteOffset" : 576
        },
        {
            "buffer" : 0,
            "byteLength" : 72,
            "byteOffset" : 768
        },
        {
            "buffer" : 0,
            "byteLength" : 11736,
            "byteOffset" : 840
        },
        {
            "buffer" : 0,
            "byteLength" : 11736,
            "byteOffset" : 12576
        },
        {
            "buffer" : 0,
            "byteLength" : 7824,
            "byteOffset" : 24312
        },
        {
            "buffer" : 0,
            "byteLength" : 1956,
            "byteOffset" : 32136
        },
        {
            "buffer" : 0,
            "byteLength" : 3675,
            "byteOffset" : 34092
        },
        {
            "buffer" : 0,
            "byteLength" : 6937,
            "byteOffset" : 37768
        },
        {
            "buffer" : 0,
            "byteLength" : 4,
            "byteOffset" : 44708
        },
        {
            "buffer" : 0,
            "byteLength" : 12,
            "byteOffset" : 44712
        },
        {
            "buffer" : 0,
            "byteLength" : 16,
            "byteOffset" : 44724
        },
        {
            "buffer" : 0,
            "byteLength" : 12,
            "byteOffset" : 44740
        }
    ],
    "buffers" : [
        {
            "byteLength" : 44752,
            "uri" : "data:application/octet-stream;base64,"
        }
    ]
}
