{
    "asset" : {
        "generator" : "Khronos glTF Blender I/O v1.3.48",
        "version" : "2.0"
    },
    "scene" : 0,
    "scenes" : [
        {
            "name" : "Scene",
            "nodes" : [
                0
            ]
        }
    ],
    "nodes" : [
        {
            "mesh" : 0,
            "name" : "CubeEmissiveChamferTexture",
            "scale" : [
                0.02539999969303608,
                0.02539999969303608,
                0.02539999969303608
            ]
        }
    ],
    "materials" : [
        {
            "doubleSided" : true,
            "emissiveFactor" : [
                1,
                1,
                1
            ],
            "emissiveTexture" : {
                "index" : 0,
                "texCoord" : 0
            },
            "name" : "Props",
            "pbrMetallicRoughness" : {
                "baseColorTexture" : {
                    "index" : 1,
                    "texCoord" : 0
                },
                "metallicFactor" : 0.9563636183738708,
                "roughnessFactor" : 0.14187732338905334
            }
        }
    ],
    "meshes" : [
        {
            "name" : "Mesh",
            "primitives" : [
                {
                    "attributes" : {
                        "POSITION" : 0,
                        "NORMAL" : 1,
                        "TEXCOORD_0" : 2
                    },
                    "indices" : 3,
                    "material" : 0
                }
            ]
        }
    ],
    "textures" : [
        {
            "source" : 0
        },
        {
            "source" : 1
        }
    ],
    "images" : [
        {
            "bufferView" : 4,
            "mimeType" : "image/png",
            "name" : "TextureAtlasEmissive"
        },
        {
            "bufferView" : 5,
            "mimeType" : "image/png",
            "name" : "TextureAtlas"
        }
    ],
    "accessors" : [
        {
            "bufferView" : 0,
            "componentType" : 5126,
            "count" : 375,
            "max" : [
                19.685039520263672,
                39.370079040527344,
                19.685039520263672
            ],
            "min" : [
                -19.685039520263672,
                0,
                -19.685039520263672
            ],
            "type" : "VEC3"
        },
        {
            "bufferView" : 1,
            "componentType" : 5126,
            "count" : 375,
            "type" : "VEC3"
        },
        {
            "bufferView" : 2,
            "componentType" : 5126,
            "count" : 375,
            "type" : "VEC2"
        },
        {
            "bufferView" : 3,
            "componentType" : 5123,
            "count" : 390,
            "type" : "SCALAR"
        }
    ],
    "bufferViews" : [
        {
            "buffer" : 0,
            "byteLength" : 4500,
            "byteOffset" : 0
        },
        {
            "buffer" : 0,
            "byteLength" : 4500,
            "byteOffset" : 4500
        },
        {
            "buffer" : 0,
            "byteLength" : 3000,
            "byteOffset" : 9000
        },
        {
            "buffer" : 0,
            "byteLength" : 780,
            "byteOffset" : 12000
        },
        {
            "buffer" : 0,
            "byteLength" : 3675,
            "byteOffset" : 12780
        },
        {
            "buffer" : 0,
            "byteLength" : 6937,
            "byteOffset" : 16456
        }
    ],
    "buffers" : [
        {
            "byteLength" : 23396,
            "uri" : "data:application/octet-stream;base64,"
        }
    ]
}
