{
    "asset" : {
        "generator" : "Khronos glTF Blender I/O v1.3.48",
        "version" : "2.0"
    },
    "scene" : 0,
    "scenes" : [
        {
            "name" : "Scene",
            "nodes" : [
                0,
                1
            ]
        }
    ],
    "nodes" : [
        {
            "extras" : {
                "babylonjs_GUID" : "f3cbfe79-992a-4913-aa7c-66b93ebe0fc5",
                "MaxHandle" : 72
            },
            "mesh" : 0,
            "name" : "Main",
            "scale" : [
                0.02539999969303608,
                0.02539999969303608,
                0.02539999969303608
            ],
            "translation" : [
                0,
                23.664140701293945,
                0
            ]
        },
        {
            "extras" : {
                "babylonjs_GUID" : "b2ceac53-b93f-41f4-8a23-31c0c6ba764f",
                "MaxHandle" : 115
            },
            "mesh" : 1,
            "name" : "Main_collider",
            "scale" : [
                0.0179457850754261,
                0.02539999969303608,
                0.0179457850754261
            ]
        }
    ],
    "materials" : [
        {
            "doubleSided" : true,
            "emissiveFactor" : [
                1,
                1,
                1
            ],
            "emissiveTexture" : {
                "index" : 0,
                "texCoord" : 0
            },
            "extras" : {
                "babylonUnlit" : 0,
                "babylonBackfaceCulling" : 0,
                "babylonSeparateCullingPass" : 0,
                "babylonUseFactors" : 0,
                "babylonMaxSimultaneousLights" : 4,
                "babylonDirectIntensity" : 1,
                "babylonEmissiveIntensity" : 1,
                "babylonEnvironmentIntensity" : 1,
                "babylonSpecularIntensity" : 1,
                "babylonTransparencyMode" : 0
            },
            "name" : "MainColor.042",
            "pbrMetallicRoughness" : {
                "baseColorTexture" : {
                    "index" : 1,
                    "texCoord" : 0
                },
                "metallicFactor" : 0,
                "roughnessFactor" : 0.5527864098548889
            }
        }
    ],
    "meshes" : [
        {
            "name" : "Mesh.130",
            "primitives" : [
                {
                    "attributes" : {
                        "POSITION" : 0,
                        "NORMAL" : 1,
                        "TEXCOORD_0" : 2
                    },
                    "indices" : 3,
                    "material" : 0
                }
            ]
        },
        {
            "name" : "Mesh.131",
            "primitives" : [
                {
                    "attributes" : {
                        "POSITION" : 4,
                        "NORMAL" : 5,
                        "TEXCOORD_0" : 6
                    },
                    "indices" : 7,
                    "material" : 0
                }
            ]
        }
    ],
    "textures" : [
        {
            "source" : 0
        },
        {
            "source" : 1
        }
    ],
    "images" : [
        {
            "bufferView" : 4,
            "mimeType" : "image/png",
            "name" : "TextureAtlasEmissive"
        },
        {
            "bufferView" : 5,
            "mimeType" : "image/png",
            "name" : "TextureAtlas"
        }
    ],
    "accessors" : [
        {
            "bufferView" : 0,
            "componentType" : 5126,
            "count" : 2808,
            "max" : [
                629.9212646484375,
                -24.280029296875,
                629.9212646484375
            ],
            "min" : [
                -629.9212646484375,
                -931.6591186523438,
                -629.9212646484375
            ],
            "type" : "VEC3"
        },
        {
            "bufferView" : 1,
            "componentType" : 5126,
            "count" : 2808,
            "type" : "VEC3"
        },
        {
            "bufferView" : 2,
            "componentType" : 5126,
            "count" : 2808,
            "type" : "VEC2"
        },
        {
            "bufferView" : 3,
            "componentType" : 5123,
            "count" : 4194,
            "type" : "SCALAR"
        },
        {
            "bufferView" : 6,
            "componentType" : 5126,
            "count" : 57,
            "max" : [
                874.3495483398438,
                400.77587890625,
                857.7972412109375
            ],
            "min" : [
                -832.183349609375,
                0,
                -851.2051391601562
            ],
            "type" : "VEC3"
        },
        {
            "bufferView" : 7,
            "componentType" : 5126,
            "count" : 57,
            "type" : "VEC3"
        },
        {
            "bufferView" : 8,
            "componentType" : 5126,
            "count" : 57,
            "type" : "VEC2"
        },
        {
            "bufferView" : 9,
            "componentType" : 5123,
            "count" : 132,
            "type" : "SCALAR"
        }
    ],
    "bufferViews" : [
        {
            "buffer" : 0,
            "byteLength" : 33696,
            "byteOffset" : 0
        },
        {
            "buffer" : 0,
            "byteLength" : 33696,
            "byteOffset" : 33696
        },
        {
            "buffer" : 0,
            "byteLength" : 22464,
            "byteOffset" : 67392
        },
        {
            "buffer" : 0,
            "byteLength" : 8388,
            "byteOffset" : 89856
        },
        {
            "buffer" : 0,
            "byteLength" : 3675,
            "byteOffset" : 98244
        },
        {
            "buffer" : 0,
            "byteLength" : 6937,
            "byteOffset" : 101920
        },
        {
            "buffer" : 0,
            "byteLength" : 684,
            "byteOffset" : 108860
        },
        {
            "buffer" : 0,
            "byteLength" : 684,
            "byteOffset" : 109544
        },
        {
            "buffer" : 0,
            "byteLength" : 456,
            "byteOffset" : 110228
        },
        {
            "buffer" : 0,
            "byteLength" : 264,
            "byteOffset" : 110684
        }
    ],
    "buffers" : [
        {
            "byteLength" : 110948,
            "uri" : "data:application/octet-stream;base64,"
        }
    ]
}
