{
    "asset" : {
        "generator" : "Khronos glTF Blender I/O v1.3.48",
        "version" : "2.0"
    },
    "scene" : 0,
    "scenes" : [
        {
            "name" : "Scene",
            "nodes" : [
                0,
                1,
                2
            ]
        }
    ],
    "nodes" : [
        {
            "mesh" : 0,
            "name" : "pedestal",
            "scale" : [
                0.01793752983212471,
                0.01793752983212471,
                0.01793752983212471
            ],
            "translation" : [
                0,
                0.2161085158586502,
                2.9850480556488037
            ]
        },
        {
            "mesh" : 1,
            "name" : "pedestalPath",
            "scale" : [
                0.02539999969303608,
                0.02539999969303608,
                0.02539999969303608
            ],
            "translation" : [
                -0.09681594371795654,
                0.25169315934181213,
                -3.097485303878784
            ]
        },
        {
            "mesh" : 2,
            "name" : "pedestal_collider",
            "scale" : [
                0.01793752983212471,
                0.01793752983212471,
                0.01793752983212471
            ],
            "translation" : [
                0,
                0.2161085158586502,
                2.9850480556488037
            ]
        }
    ],
    "materials" : [
        {
            "doubleSided" : true,
            "emissiveFactor" : [
                1,
                1,
                1
            ],
            "name" : "pedestalMain.001",
            "pbrMetallicRoughness" : {
                "baseColorFactor" : [
                    0.9066836833953857,
                    0.901412308216095,
                    0.9960784912109375,
                    1
                ],
                "metallicFactor" : 0,
                "roughnessFactor" : 0.5527864098548889
            }
        },
        {
            "doubleSided" : true,
            "emissiveFactor" : [
                0,
                0.38226479291915894,
                1
            ],
            "name" : "pedestalEmissive.001",
            "pbrMetallicRoughness" : {
                "baseColorFactor" : [
                    0,
                    0.2713268995285034,
                    0.49999991059303284,
                    1
                ],
                "metallicFactor" : 0,
                "roughnessFactor" : 0.5527864098548889
            }
        },
        {
            "alphaMode" : "BLEND",
            "doubleSided" : true,
            "emissiveFactor" : [
                0,
                0.24843356013298035,
                1
            ],
            "name" : "EmissiveTransparent.001",
            "pbrMetallicRoughness" : {
                "baseColorFactor" : [
                    0,
                    0.349637508392334,
                    0.9960784912109375,
                    0.5163636207580566
                ],
                "metallicFactor" : 0,
                "roughnessFactor" : 0.5527864098548889
            }
        },
        {
            "doubleSided" : true,
            "emissiveFactor" : [
                1,
                1,
                1
            ],
            "name" : "pedestalMain.002",
            "pbrMetallicRoughness" : {
                "baseColorFactor" : [
                    0.9066836833953857,
                    0.901412308216095,
                    0.9960784912109375,
                    1
                ],
                "metallicFactor" : 0,
                "roughnessFactor" : 0.5527864098548889
            }
        },
        {
            "doubleSided" : true,
            "emissiveFactor" : [
                0,
                0.38226479291915894,
                1
            ],
            "name" : "pedestalEmissive.002",
            "pbrMetallicRoughness" : {
                "baseColorFactor" : [
                    0,
                    0.2713268995285034,
                    0.49999991059303284,
                    1
                ],
                "metallicFactor" : 0,
                "roughnessFactor" : 0.5527864098548889
            }
        }
    ],
    "meshes" : [
        {
            "name" : "Mesh.038",
            "primitives" : [
                {
                    "attributes" : {
                        "POSITION" : 0,
                        "NORMAL" : 1,
                        "TEXCOORD_0" : 2
                    },
                    "indices" : 3,
                    "material" : 0
                },
                {
                    "attributes" : {
                        "POSITION" : 4,
                        "NORMAL" : 5,
                        "TEXCOORD_0" : 6
                    },
                    "indices" : 7,
                    "material" : 1
                }
            ]
        },
        {
            "name" : "Mesh.039",
            "primitives" : [
                {
                    "attributes" : {
                        "POSITION" : 8,
                        "NORMAL" : 9,
                        "TEXCOORD_0" : 10
                    },
                    "indices" : 11,
                    "material" : 2
                }
            ]
        },
        {
            "name" : "Mesh.040",
            "primitives" : [
                {
                    "attributes" : {
                        "POSITION" : 12,
                        "NORMAL" : 13,
                        "TEXCOORD_0" : 14
                    },
                    "indices" : 3,
                    "material" : 3
                },
                {
                    "attributes" : {
                        "POSITION" : 15,
                        "NORMAL" : 16,
                        "TEXCOORD_0" : 17
                    },
                    "indices" : 7,
                    "material" : 4
                }
            ]
        }
    ],
    "accessors" : [
        {
            "bufferView" : 0,
            "componentType" : 5126,
            "count" : 102,
            "max" : [
                163.09422302246094,
                20.30449867248535,
                163.09422302246094
            ],
            "min" : [
                -163.09422302246094,
                0,
                -163.09422302246094
            ],
            "type" : "VEC3"
        },
        {
            "bufferView" : 1,
            "componentType" : 5126,
            "count" : 102,
            "type" : "VEC3"
        },
        {
            "bufferView" : 2,
            "componentType" : 5126,
            "count" : 102,
            "type" : "VEC2"
        },
        {
            "bufferView" : 3,
            "componentType" : 5123,
            "count" : 180,
            "type" : "SCALAR"
        },
        {
            "bufferView" : 4,
            "componentType" : 5126,
            "count" : 66,
            "max" : [
                144.75872802734375,
                20.30449867248535,
                144.75872802734375
            ],
            "min" : [
                -144.75872802734375,
                8.13871955871582,
                -144.75872802734375
            ],
            "type" : "VEC3"
        },
        {
            "bufferView" : 5,
            "componentType" : 5126,
            "count" : 66,
            "type" : "VEC3"
        },
        {
            "bufferView" : 6,
            "componentType" : 5126,
            "count" : 66,
            "type" : "VEC2"
        },
        {
            "bufferView" : 7,
            "componentType" : 5123,
            "count" : 96,
            "type" : "SCALAR"
        },
        {
            "bufferView" : 8,
            "componentType" : 5126,
            "count" : 8,
            "max" : [
                66.87019348144531,
                9.334609985351562,
                160.1741943359375
            ],
            "min" : [
                -66.87019348144531,
                0,
                -399.88116455078125
            ],
            "type" : "VEC3"
        },
        {
            "bufferView" : 9,
            "componentType" : 5126,
            "count" : 8,
            "type" : "VEC3"
        },
        {
            "bufferView" : 10,
            "componentType" : 5126,
            "count" : 8,
            "type" : "VEC2"
        },
        {
            "bufferView" : 11,
            "componentType" : 5123,
            "count" : 12,
            "type" : "SCALAR"
        },
        {
            "bufferView" : 12,
            "componentType" : 5126,
            "count" : 102,
            "max" : [
                163.09422302246094,
                20.30449867248535,
                163.09422302246094
            ],
            "min" : [
                -163.09422302246094,
                0,
                -163.09422302246094
            ],
            "type" : "VEC3"
        },
        {
            "bufferView" : 13,
            "componentType" : 5126,
            "count" : 102,
            "type" : "VEC3"
        },
        {
            "bufferView" : 14,
            "componentType" : 5126,
            "count" : 102,
            "type" : "VEC2"
        },
        {
            "bufferView" : 15,
            "componentType" : 5126,
            "count" : 66,
            "max" : [
                144.75872802734375,
                20.30449867248535,
                144.75872802734375
            ],
            "min" : [
                -144.75872802734375,
                8.13871955871582,
                -144.75872802734375
            ],
            "type" : "VEC3"
        },
        {
            "bufferView" : 16,
            "componentType" : 5126,
            "count" : 66,
            "type" : "VEC3"
        },
        {
            "bufferView" : 17,
            "componentType" : 5126,
            "count" : 66,
            "type" : "VEC2"
        }
    ],
    "bufferViews" : [
        {
            "buffer" : 0,
            "byteLength" : 1224,
            "byteOffset" : 0
        },
        {
            "buffer" : 0,
            "byteLength" : 1224,
            "byteOffset" : 1224
        },
        {
            "buffer" : 0,
            "byteLength" : 816,
            "byteOffset" : 2448
        },
        {
            "buffer" : 0,
            "byteLength" : 360,
            "byteOffset" : 3264
        },
        {
            "buffer" : 0,
            "byteLength" : 792,
            "byteOffset" : 3624
        },
        {
            "buffer" : 0,
            "byteLength" : 792,
            "byteOffset" : 4416
        },
        {
            "buffer" : 0,
            "byteLength" : 528,
            "byteOffset" : 5208
        },
        {
            "buffer" : 0,
            "byteLength" : 192,
            "byteOffset" : 5736
        },
        {
            "buffer" : 0,
            "byteLength" : 96,
            "byteOffset" : 5928
        },
        {
            "buffer" : 0,
            "byteLength" : 96,
            "byteOffset" : 6024
        },
        {
            "buffer" : 0,
            "byteLength" : 64,
            "byteOffset" : 6120
        },
        {
            "buffer" : 0,
            "byteLength" : 24,
            "byteOffset" : 6184
        },
        {
            "buffer" : 0,
            "byteLength" : 1224,
            "byteOffset" : 6208
        },
        {
            "buffer" : 0,
            "byteLength" : 1224,
            "byteOffset" : 7432
        },
        {
            "buffer" : 0,
            "byteLength" : 816,
            "byteOffset" : 8656
        },
        {
            "buffer" : 0,
            "byteLength" : 792,
            "byteOffset" : 9472
        },
        {
            "buffer" : 0,
            "byteLength" : 792,
            "byteOffset" : 10264
        },
        {
            "buffer" : 0,
            "byteLength" : 528,
            "byteOffset" : 11056
        }
    ],
    "buffers" : [
        {
            "byteLength" : 11584,
            "uri" : "data:application/octet-stream;base64,"
        }
    ]
}
