{
    "asset" : {
        "generator" : "Khronos glTF Blender I/O v1.3.48",
        "version" : "2.0"
    },
    "scene" : 0,
    "scenes" : [
        {
            "name" : "Scene",
            "nodes" : [
                6
            ]
        }
    ],
    "nodes" : [
        {
            "name" : "Halo2",
            "rotation" : [
                -0.7071068286895752,
                6.181724643283815e-08,
                6.181724643283815e-08,
                0.7071068286895752
            ]
        },
        {
            "name" : "Halo1",
            "rotation" : [
                -0.7071068286895752,
                1.236344928656763e-07,
                1.236344928656763e-07,
                0.7071068286895752
            ]
        },
        {
            "name" : "Sphere",
            "rotation" : [
                -0.7071068286895752,
                0,
                0,
                0.7071068286895752
            ]
        },
        {
            "extras" : {
                "babylonjs_GUID" : "5b12f226-7f27-4520-bf0f-82abcb883d7c",
                "MaxHandle" : 89
            },
            "mesh" : 0,
            "name" : "SphereHalo",
            "skin" : 0
        },
        {
            "extras" : {
                "babylonjs_GUID" : "5b12f226-7f27-4520-bf0f-82abcb883d7c",
                "MaxHandle" : 88
            },
            "mesh" : 1,
            "name" : "SphereHalo2",
            "skin" : 0
        },
        {
            "extras" : {
                "babylonjs_GUID" : "f3cbfe79-992a-4913-aa7c-66b93ebe0fc5",
                "MaxHandle" : 87
            },
            "mesh" : 2,
            "name" : "SphereMain",
            "skin" : 0
        },
        {
            "children" : [
                3,
                4,
                5,
                0,
                1,
                2
            ],
            "extras" : {
                "babylonjs_GUID" : "26dd2982-da93-4050-a8a2-f2e269344c3c",
                "MaxHandle" : 90
            },
            "name" : "DummiesSphere",
            "scale" : [
                0.02539999969303608,
                0.02539999969303608,
                0.02539999969303608
            ],
            "translation" : [
                0,
                28.664140701293945,
                0
            ]
        }
    ],
    "animations" : [
        {
            "channels" : [
                {
                    "sampler" : 0,
                    "target" : {
                        "node" : 0,
                        "path" : "translation"
                    }
                },
                {
                    "sampler" : 1,
                    "target" : {
                        "node" : 0,
                        "path" : "rotation"
                    }
                },
                {
                    "sampler" : 2,
                    "target" : {
                        "node" : 0,
                        "path" : "scale"
                    }
                },
                {
                    "sampler" : 3,
                    "target" : {
                        "node" : 1,
                        "path" : "translation"
                    }
                },
                {
                    "sampler" : 4,
                    "target" : {
                        "node" : 1,
                        "path" : "rotation"
                    }
                },
                {
                    "sampler" : 5,
                    "target" : {
                        "node" : 1,
                        "path" : "scale"
                    }
                },
                {
                    "sampler" : 6,
                    "target" : {
                        "node" : 2,
                        "path" : "translation"
                    }
                },
                {
                    "sampler" : 7,
                    "target" : {
                        "node" : 2,
                        "path" : "rotation"
                    }
                },
                {
                    "sampler" : 8,
                    "target" : {
                        "node" : 2,
                        "path" : "scale"
                    }
                },
                {
                    "sampler" : 9,
                    "target" : {
                        "node" : 6,
                        "path" : "translation"
                    }
                },
                {
                    "sampler" : 10,
                    "target" : {
                        "node" : 6,
                        "path" : "rotation"
                    }
                },
                {
                    "sampler" : 11,
                    "target" : {
                        "node" : 6,
                        "path" : "scale"
                    }
                }
            ],
            "name" : "DummiesSphere|Take 001|BaseLayer.006",
            "samplers" : [
                {
                    "input" : 19,
                    "interpolation" : "LINEAR",
                    "output" : 20
                },
                {
                    "input" : 19,
                    "interpolation" : "LINEAR",
                    "output" : 21
                },
                {
                    "input" : 19,
                    "interpolation" : "LINEAR",
                    "output" : 22
                },
                {
                    "input" : 19,
                    "interpolation" : "LINEAR",
                    "output" : 23
                },
                {
                    "input" : 19,
                    "interpolation" : "LINEAR",
                    "output" : 24
                },
                {
                    "input" : 19,
                    "interpolation" : "LINEAR",
                    "output" : 25
                },
                {
                    "input" : 19,
                    "interpolation" : "LINEAR",
                    "output" : 26
                },
                {
                    "input" : 19,
                    "interpolation" : "LINEAR",
                    "output" : 27
                },
                {
                    "input" : 19,
                    "interpolation" : "LINEAR",
                    "output" : 28
                },
                {
                    "input" : 19,
                    "interpolation" : "LINEAR",
                    "output" : 29
                },
                {
                    "input" : 19,
                    "interpolation" : "LINEAR",
                    "output" : 30
                },
                {
                    "input" : 19,
                    "interpolation" : "LINEAR",
                    "output" : 31
                }
            ]
        }
    ],
    "materials" : [
        {
            "alphaMode" : "BLEND",
            "doubleSided" : true,
            "emissiveFactor" : [
                0,
                0.1047355905175209,
                1
            ],
            "extras" : {
                "babylonUnlit" : 0,
                "babylonBackfaceCulling" : 0,
                "babylonSeparateCullingPass" : 0,
                "babylonUseFactors" : 0,
                "babylonMaxSimultaneousLights" : 4,
                "babylonDirectIntensity" : 1,
                "babylonEmissiveIntensity" : 1,
                "babylonEnvironmentIntensity" : 1,
                "babylonSpecularIntensity" : 1,
                "babylonTransparencyMode" : 0
            },
            "name" : "Emissive2.011",
            "pbrMetallicRoughness" : {
                "baseColorFactor" : [
                    0,
                    0.2568441927433014,
                    0.9960784912109375,
                    0.5454545021057129
                ],
                "metallicFactor" : 0,
                "roughnessFactor" : 0.5527864098548889
            }
        },
        {
            "doubleSided" : true,
            "emissiveFactor" : [
                1,
                1,
                1
            ],
            "emissiveTexture" : {
                "index" : 0,
                "texCoord" : 0
            },
            "extras" : {
                "babylonUnlit" : 0,
                "babylonBackfaceCulling" : 0,
                "babylonSeparateCullingPass" : 0,
                "babylonUseFactors" : 0,
                "babylonMaxSimultaneousLights" : 4,
                "babylonDirectIntensity" : 1,
                "babylonEmissiveIntensity" : 1,
                "babylonEnvironmentIntensity" : 1,
                "babylonSpecularIntensity" : 1,
                "babylonTransparencyMode" : 0
            },
            "name" : "MainColor.033",
            "pbrMetallicRoughness" : {
                "baseColorTexture" : {
                    "index" : 1,
                    "texCoord" : 0
                },
                "metallicFactor" : 0,
                "roughnessFactor" : 0.5527864098548889
            }
        }
    ],
    "meshes" : [
        {
            "name" : "Mesh.111",
            "primitives" : [
                {
                    "attributes" : {
                        "POSITION" : 0,
                        "NORMAL" : 1,
                        "TEXCOORD_0" : 2,
                        "JOINTS_0" : 3,
                        "WEIGHTS_0" : 4
                    },
                    "indices" : 5,
                    "material" : 0
                }
            ]
        },
        {
            "name" : "Mesh.110",
            "primitives" : [
                {
                    "attributes" : {
                        "POSITION" : 7,
                        "NORMAL" : 8,
                        "TEXCOORD_0" : 9,
                        "JOINTS_0" : 10,
                        "WEIGHTS_0" : 11
                    },
                    "indices" : 12,
                    "material" : 0
                }
            ]
        },
        {
            "name" : "Mesh.109",
            "primitives" : [
                {
                    "attributes" : {
                        "POSITION" : 13,
                        "NORMAL" : 14,
                        "TEXCOORD_0" : 15,
                        "JOINTS_0" : 16,
                        "WEIGHTS_0" : 17
                    },
                    "indices" : 18,
                    "material" : 1
                }
            ]
        }
    ],
    "textures" : [
        {
            "source" : 0
        },
        {
            "source" : 1
        }
    ],
    "images" : [
        {
            "bufferView" : 19,
            "mimeType" : "image/png",
            "name" : "TextureAtlasEmissive"
        },
        {
            "bufferView" : 20,
            "mimeType" : "image/png",
            "name" : "TextureAtlas"
        }
    ],
    "skins" : [
        {
            "inverseBindMatrices" : 6,
            "joints" : [
                0,
                1,
                2
            ],
            "name" : "DummiesSphere"
        }
    ],
    "accessors" : [
        {
            "bufferView" : 0,
            "componentType" : 5126,
            "count" : 66,
            "max" : [
                4.937106609344482,
                29.456270217895508,
                5.074493885040283
            ],
            "min" : [
                -4.937106609344482,
                27.871992111206055,
                -5.074493885040283
            ],
            "type" : "VEC3"
        },
        {
            "bufferView" : 1,
            "componentType" : 5126,
            "count" : 66,
            "type" : "VEC3"
        },
        {
            "bufferView" : 2,
            "componentType" : 5126,
            "count" : 66,
            "type" : "VEC2"
        },
        {
            "bufferView" : 3,
            "componentType" : 5123,
            "count" : 66,
            "type" : "VEC4"
        },
        {
            "bufferView" : 4,
            "componentType" : 5126,
            "count" : 66,
            "type" : "VEC4"
        },
        {
            "bufferView" : 5,
            "componentType" : 5123,
            "count" : 216,
            "type" : "SCALAR"
        },
        {
            "bufferView" : 6,
            "componentType" : 5126,
            "count" : 3,
            "type" : "MAT4"
        },
        {
            "bufferView" : 7,
            "componentType" : 5126,
            "count" : 66,
            "max" : [
                5.227403163909912,
                34.03700256347656,
                0.8387150764465332
            ],
            "min" : [
                -5.227403163909912,
                23.291263580322266,
                -0.8387150764465332
            ],
            "type" : "VEC3"
        },
        {
            "bufferView" : 8,
            "componentType" : 5126,
            "count" : 66,
            "type" : "VEC3"
        },
        {
            "bufferView" : 9,
            "componentType" : 5126,
            "count" : 66,
            "type" : "VEC2"
        },
        {
            "bufferView" : 10,
            "componentType" : 5123,
            "count" : 66,
            "type" : "VEC4"
        },
        {
            "bufferView" : 11,
            "componentType" : 5126,
            "count" : 66,
            "type" : "VEC4"
        },
        {
            "bufferView" : 12,
            "componentType" : 5123,
            "count" : 216,
            "type" : "SCALAR"
        },
        {
            "bufferView" : 13,
            "componentType" : 5126,
            "count" : 194,
            "max" : [
                4.362795829772949,
                33.05649185180664,
                4.362795829772949
            ],
            "min" : [
                -4.362795829772949,
                24.271770477294922,
                -4.362795829772949
            ],
            "type" : "VEC3"
        },
        {
            "bufferView" : 14,
            "componentType" : 5126,
            "count" : 194,
            "type" : "VEC3"
        },
        {
            "bufferView" : 15,
            "componentType" : 5126,
            "count" : 194,
            "type" : "VEC2"
        },
        {
            "bufferView" : 16,
            "componentType" : 5123,
            "count" : 194,
            "type" : "VEC4"
        },
        {
            "bufferView" : 17,
            "componentType" : 5126,
            "count" : 194,
            "type" : "VEC4"
        },
        {
            "bufferView" : 18,
            "componentType" : 5123,
            "count" : 768,
            "type" : "SCALAR"
        },
        {
            "bufferView" : 21,
            "componentType" : 5126,
            "count" : 201,
            "max" : [
                6.7
            ],
            "min" : [
                0.03333333333333333
            ],
            "type" : "SCALAR"
        },
        {
            "bufferView" : 22,
            "componentType" : 5126,
            "count" : 201,
            "type" : "VEC3"
        },
        {
            "bufferView" : 23,
            "componentType" : 5126,
            "count" : 201,
            "type" : "VEC4"
        },
        {
            "bufferView" : 24,
            "componentType" : 5126,
            "count" : 201,
            "type" : "VEC3"
        },
        {
            "bufferView" : 25,
            "componentType" : 5126,
            "count" : 201,
            "type" : "VEC3"
        },
        {
            "bufferView" : 26,
            "componentType" : 5126,
            "count" : 201,
            "type" : "VEC4"
        },
        {
            "bufferView" : 27,
            "componentType" : 5126,
            "count" : 201,
            "type" : "VEC3"
        },
        {
            "bufferView" : 28,
            "componentType" : 5126,
            "count" : 201,
            "type" : "VEC3"
        },
        {
            "bufferView" : 29,
            "componentType" : 5126,
            "count" : 201,
            "type" : "VEC4"
        },
        {
            "bufferView" : 30,
            "componentType" : 5126,
            "count" : 201,
            "type" : "VEC3"
        },
        {
            "bufferView" : 31,
            "componentType" : 5126,
            "count" : 201,
            "type" : "VEC3"
        },
        {
            "bufferView" : 32,
            "componentType" : 5126,
            "count" : 201,
            "type" : "VEC4"
        },
        {
            "bufferView" : 33,
            "componentType" : 5126,
            "count" : 201,
            "type" : "VEC3"
        }
    ],
    "bufferViews" : [
        {
            "buffer" : 0,
            "byteLength" : 792,
            "byteOffset" : 0
        },
        {
            "buffer" : 0,
            "byteLength" : 792,
            "byteOffset" : 792
        },
        {
            "buffer" : 0,
            "byteLength" : 528,
            "byteOffset" : 1584
        },
        {
            "buffer" : 0,
            "byteLength" : 528,
            "byteOffset" : 2112
        },
        {
            "buffer" : 0,
            "byteLength" : 1056,
            "byteOffset" : 2640
        },
        {
            "buffer" : 0,
            "byteLength" : 432,
            "byteOffset" : 3696
        },
        {
            "buffer" : 0,
            "byteLength" : 192,
            "byteOffset" : 4128
        },
        {
            "buffer" : 0,
            "byteLength" : 792,
            "byteOffset" : 4320
        },
        {
            "buffer" : 0,
            "byteLength" : 792,
            "byteOffset" : 5112
        },
        {
            "buffer" : 0,
            "byteLength" : 528,
            "byteOffset" : 5904
        },
        {
            "buffer" : 0,
            "byteLength" : 528,
            "byteOffset" : 6432
        },
        {
            "buffer" : 0,
            "byteLength" : 1056,
            "byteOffset" : 6960
        },
        {
            "buffer" : 0,
            "byteLength" : 432,
            "byteOffset" : 8016
        },
        {
            "buffer" : 0,
            "byteLength" : 2328,
            "byteOffset" : 8448
        },
        {
            "buffer" : 0,
            "byteLength" : 2328,
            "byteOffset" : 10776
        },
        {
            "buffer" : 0,
            "byteLength" : 1552,
            "byteOffset" : 13104
        },
        {
            "buffer" : 0,
            "byteLength" : 1552,
            "byteOffset" : 14656
        },
        {
            "buffer" : 0,
            "byteLength" : 3104,
            "byteOffset" : 16208
        },
        {
            "buffer" : 0,
            "byteLength" : 1536,
            "byteOffset" : 19312
        },
        {
            "buffer" : 0,
            "byteLength" : 3675,
            "byteOffset" : 20848
        },
        {
            "buffer" : 0,
            "byteLength" : 6937,
            "byteOffset" : 24524
        },
        {
            "buffer" : 0,
            "byteLength" : 804,
            "byteOffset" : 31464
        },
        {
            "buffer" : 0,
            "byteLength" : 2412,
            "byteOffset" : 32268
        },
        {
            "buffer" : 0,
            "byteLength" : 3216,
            "byteOffset" : 34680
        },
        {
            "buffer" : 0,
            "byteLength" : 2412,
            "byteOffset" : 37896
        },
        {
            "buffer" : 0,
            "byteLength" : 2412,
            "byteOffset" : 40308
        },
        {
            "buffer" : 0,
            "byteLength" : 3216,
            "byteOffset" : 42720
        },
        {
            "buffer" : 0,
            "byteLength" : 2412,
            "byteOffset" : 45936
        },
        {
            "buffer" : 0,
            "byteLength" : 2412,
            "byteOffset" : 48348
        },
        {
            "buffer" : 0,
            "byteLength" : 3216,
            "byteOffset" : 50760
        },
        {
            "buffer" : 0,
            "byteLength" : 2412,
            "byteOffset" : 53976
        },
        {
            "buffer" : 0,
            "byteLength" : 2412,
            "byteOffset" : 56388
        },
        {
            "buffer" : 0,
            "byteLength" : 3216,
            "byteOffset" : 58800
        },
        {
            "buffer" : 0,
            "byteLength" : 2412,
            "byteOffset" : 62016
        }
    ],
    "buffers" : [
        {
            "byteLength" : 64428,
            "uri" : "data:application/octet-stream;base64,"
        }
    ]
}
