{
    "asset" : {
        "generator" : "Khronos glTF Blender I/O v1.3.48",
        "version" : "2.0"
    },
    "scene" : 0,
    "scenes" : [
        {
            "name" : "Scene",
            "nodes" : [
                8
            ]
        }
    ],
    "nodes" : [
        {
            "name" : "Arm1D",
            "rotation" : [
                -0.7071068286895752,
                0,
                0,
                0.7071068286895752
            ],
            "translation" : [
                -11.625594139099121,
                14.27573013305664,
                -1.7820128202438354
            ]
        },
        {
            "name" : "Arm2D",
            "rotation" : [
                -0.7071068286895752,
                0,
                0,
                0.7071068286895752
            ],
            "translation" : [
                1.7820144891738892,
                14.275732040405273,
                -11.625592231750488
            ]
        },
        {
            "name" : "Arm3D",
            "rotation" : [
                -0.7071068286895752,
                0,
                0,
                0.7071068286895752
            ],
            "translation" : [
                11.625591278076172,
                14.275727272033691,
                1.7820193767547607
            ]
        },
        {
            "name" : "Arm4D",
            "rotation" : [
                -0.7071068286895752,
                0,
                0,
                0.7071068286895752
            ],
            "translation" : [
                -1.7820167541503906,
                14.275728225708008,
                11.625593185424805
            ]
        },
        {
            "extras" : {
                "babylonjs_GUID" : "d846532b-5f8a-4f5c-9e31-ba30469b4cbf",
                "MaxHandle" : 86
            },
            "mesh" : 0,
            "name" : "Arm1",
            "skin" : 0
        },
        {
            "extras" : {
                "babylonjs_GUID" : "d846532b-5f8a-4f5c-9e31-ba30469b4cbf",
                "MaxHandle" : 83
            },
            "mesh" : 1,
            "name" : "Arm2",
            "skin" : 0
        },
        {
            "extras" : {
                "babylonjs_GUID" : "d846532b-5f8a-4f5c-9e31-ba30469b4cbf",
                "MaxHandle" : 84
            },
            "mesh" : 2,
            "name" : "Arm3",
            "skin" : 0
        },
        {
            "extras" : {
                "babylonjs_GUID" : "d846532b-5f8a-4f5c-9e31-ba30469b4cbf",
                "MaxHandle" : 85
            },
            "mesh" : 3,
            "name" : "Arm4",
            "skin" : 0
        },
        {
            "children" : [
                4,
                5,
                6,
                7,
                0,
                1,
                2,
                3
            ],
            "name" : "Armature"
        }
    ],
    "materials" : [
        {
            "doubleSided" : true,
            "emissiveFactor" : [
                1,
                1,
                1
            ],
            "emissiveTexture" : {
                "index" : 0,
                "texCoord" : 0
            },
            "extras" : {
                "babylonUnlit" : 0,
                "babylonBackfaceCulling" : 0,
                "babylonSeparateCullingPass" : 0,
                "babylonUseFactors" : 0,
                "babylonMaxSimultaneousLights" : 4,
                "babylonDirectIntensity" : 1,
                "babylonEmissiveIntensity" : 1,
                "babylonEnvironmentIntensity" : 1,
                "babylonSpecularIntensity" : 1,
                "babylonTransparencyMode" : 0
            },
            "name" : "MainColor.037",
            "pbrMetallicRoughness" : {
                "baseColorTexture" : {
                    "index" : 1,
                    "texCoord" : 0
                },
                "metallicFactor" : 0,
                "roughnessFactor" : 0.5527864098548889
            }
        }
    ],
    "meshes" : [
        {
            "name" : "Mesh.121",
            "primitives" : [
                {
                    "attributes" : {
                        "POSITION" : 0,
                        "NORMAL" : 1,
                        "TEXCOORD_0" : 2,
                        "JOINTS_0" : 3,
                        "WEIGHTS_0" : 4
                    },
                    "indices" : 5,
                    "material" : 0
                }
            ]
        },
        {
            "name" : "Mesh.122",
            "primitives" : [
                {
                    "attributes" : {
                        "POSITION" : 7,
                        "NORMAL" : 8,
                        "TEXCOORD_0" : 9,
                        "JOINTS_0" : 10,
                        "WEIGHTS_0" : 11
                    },
                    "indices" : 5,
                    "material" : 0
                }
            ]
        },
        {
            "name" : "Mesh.123",
            "primitives" : [
                {
                    "attributes" : {
                        "POSITION" : 12,
                        "NORMAL" : 13,
                        "TEXCOORD_0" : 14,
                        "JOINTS_0" : 15,
                        "WEIGHTS_0" : 16
                    },
                    "indices" : 5,
                    "material" : 0
                }
            ]
        },
        {
            "name" : "Mesh.124",
            "primitives" : [
                {
                    "attributes" : {
                        "POSITION" : 17,
                        "NORMAL" : 18,
                        "TEXCOORD_0" : 19,
                        "JOINTS_0" : 20,
                        "WEIGHTS_0" : 21
                    },
                    "indices" : 5,
                    "material" : 0
                }
            ]
        }
    ],
    "textures" : [
        {
            "source" : 0
        },
        {
            "source" : 1
        }
    ],
    "images" : [
        {
            "bufferView" : 6,
            "mimeType" : "image/png",
            "name" : "TextureAtlasEmissive"
        },
        {
            "bufferView" : 7,
            "mimeType" : "image/png",
            "name" : "TextureAtlas"
        }
    ],
    "skins" : [
        {
            "inverseBindMatrices" : 6,
            "joints" : [
                0,
                1,
                2,
                3
            ],
            "name" : "Armature"
        }
    ],
    "accessors" : [
        {
            "bufferView" : 0,
            "componentType" : 5126,
            "count" : 290,
            "max" : [
                -5.078738212585449,
                26.51917266845703,
                4.9633870124816895
            ],
            "min" : [
                -15.342337608337402,
                12.716574668884277,
                -4.963383674621582
            ],
            "type" : "VEC3"
        },
        {
            "bufferView" : 1,
            "componentType" : 5126,
            "count" : 290,
            "type" : "VEC3"
        },
        {
            "bufferView" : 2,
            "componentType" : 5126,
            "count" : 290,
            "type" : "VEC2"
        },
        {
            "bufferView" : 3,
            "componentType" : 5123,
            "count" : 290,
            "type" : "VEC4"
        },
        {
            "bufferView" : 4,
            "componentType" : 5126,
            "count" : 290,
            "type" : "VEC4"
        },
        {
            "bufferView" : 5,
            "componentType" : 5123,
            "count" : 462,
            "type" : "SCALAR"
        },
        {
            "bufferView" : 8,
            "componentType" : 5126,
            "count" : 4,
            "type" : "MAT4"
        },
        {
            "bufferView" : 9,
            "componentType" : 5126,
            "count" : 290,
            "max" : [
                4.963385581970215,
                26.51917266845703,
                -5.078734397888184
            ],
            "min" : [
                -4.963384628295898,
                12.71657657623291,
                -15.342334747314453
            ],
            "type" : "VEC3"
        },
        {
            "bufferView" : 10,
            "componentType" : 5126,
            "count" : 290,
            "type" : "VEC3"
        },
        {
            "bufferView" : 11,
            "componentType" : 5126,
            "count" : 290,
            "type" : "VEC2"
        },
        {
            "bufferView" : 12,
            "componentType" : 5123,
            "count" : 290,
            "type" : "VEC4"
        },
        {
            "bufferView" : 13,
            "componentType" : 5126,
            "count" : 290,
            "type" : "VEC4"
        },
        {
            "bufferView" : 14,
            "componentType" : 5126,
            "count" : 290,
            "max" : [
                15.342336654663086,
                26.51917266845703,
                4.963389873504639
            ],
            "min" : [
                5.0787353515625,
                12.716573715209961,
                -4.963381290435791
            ],
            "type" : "VEC3"
        },
        {
            "bufferView" : 15,
            "componentType" : 5126,
            "count" : 290,
            "type" : "VEC3"
        },
        {
            "bufferView" : 16,
            "componentType" : 5126,
            "count" : 290,
            "type" : "VEC2"
        },
        {
            "bufferView" : 17,
            "componentType" : 5123,
            "count" : 290,
            "type" : "VEC4"
        },
        {
            "bufferView" : 18,
            "componentType" : 5126,
            "count" : 290,
            "type" : "VEC4"
        },
        {
            "bufferView" : 19,
            "componentType" : 5126,
            "count" : 290,
            "max" : [
                4.963382720947266,
                26.5191707611084,
                15.342338562011719
            ],
            "min" : [
                -4.963388442993164,
                12.716572761535645,
                5.078741073608398
            ],
            "type" : "VEC3"
        },
        {
            "bufferView" : 20,
            "componentType" : 5126,
            "count" : 290,
            "type" : "VEC3"
        },
        {
            "bufferView" : 21,
            "componentType" : 5126,
            "count" : 290,
            "type" : "VEC2"
        },
        {
            "bufferView" : 22,
            "componentType" : 5123,
            "count" : 290,
            "type" : "VEC4"
        },
        {
            "bufferView" : 23,
            "componentType" : 5126,
            "count" : 290,
            "type" : "VEC4"
        }
    ],
    "bufferViews" : [
        {
            "buffer" : 0,
            "byteLength" : 3480,
            "byteOffset" : 0
        },
        {
            "buffer" : 0,
            "byteLength" : 3480,
            "byteOffset" : 3480
        },
        {
            "buffer" : 0,
            "byteLength" : 2320,
            "byteOffset" : 6960
        },
        {
            "buffer" : 0,
            "byteLength" : 2320,
            "byteOffset" : 9280
        },
        {
            "buffer" : 0,
            "byteLength" : 4640,
            "byteOffset" : 11600
        },
        {
            "buffer" : 0,
            "byteLength" : 924,
            "byteOffset" : 16240
        },
        {
            "buffer" : 0,
            "byteLength" : 3675,
            "byteOffset" : 17164
        },
        {
            "buffer" : 0,
            "byteLength" : 6937,
            "byteOffset" : 20840
        },
        {
            "buffer" : 0,
            "byteLength" : 256,
            "byteOffset" : 27780
        },
        {
            "buffer" : 0,
            "byteLength" : 3480,
            "byteOffset" : 28036
        },
        {
            "buffer" : 0,
            "byteLength" : 3480,
            "byteOffset" : 31516
        },
        {
            "buffer" : 0,
            "byteLength" : 2320,
            "byteOffset" : 34996
        },
        {
            "buffer" : 0,
            "byteLength" : 2320,
            "byteOffset" : 37316
        },
        {
            "buffer" : 0,
            "byteLength" : 4640,
            "byteOffset" : 39636
        },
        {
            "buffer" : 0,
            "byteLength" : 3480,
            "byteOffset" : 44276
        },
        {
            "buffer" : 0,
            "byteLength" : 3480,
            "byteOffset" : 47756
        },
        {
            "buffer" : 0,
            "byteLength" : 2320,
            "byteOffset" : 51236
        },
        {
            "buffer" : 0,
            "byteLength" : 2320,
            "byteOffset" : 53556
        },
        {
            "buffer" : 0,
            "byteLength" : 4640,
            "byteOffset" : 55876
        },
        {
            "buffer" : 0,
            "byteLength" : 3480,
            "byteOffset" : 60516
        },
        {
            "buffer" : 0,
            "byteLength" : 3480,
            "byteOffset" : 63996
        },
        {
            "buffer" : 0,
            "byteLength" : 2320,
            "byteOffset" : 67476
        },
        {
            "buffer" : 0,
            "byteLength" : 2320,
            "byteOffset" : 69796
        },
        {
            "buffer" : 0,
            "byteLength" : 4640,
            "byteOffset" : 72116
        }
    ],
    "buffers" : [
        {
            "byteLength" : 76756,
            "uri" : "data:application/octet-stream;base64,"
        }
    ]
}
